#N canvas 1303 1009 450 300 10;
#X obj -21 40 gemwin;
#X obj -11 85 gemhead;
#X msg -21 11 reset \, create \, 1;
#X obj -11 251 rectangle 4 3;
#X obj -11 116 pix_video;
#X obj -11 145 pix_texture;
#X msg 93 11 0 \, destroy;
#X msg 227 143 1 1 0 1 0 0 1 0;
#X msg 227 197 0 0 1 0 1 1 0 1;
#X msg 104 227 0 0 0 1 1 1 1 0;
#X msg 104 171 1 1 1 0 0 0 0 1;
#X obj -11 213 pix_coordinate;
#X msg 104 198 1 0 0 0 0 1 1 1;
#X msg 227 169 0 1 0 0 1 0 1 1;
#X msg 228 226 1 0 1 1 0 1 0 0;
#X msg 104 143 0 1 1 1 1 0 0 0;
#X text 225 119 flipped;
#X text 103 118 normal;
#X text 337 227 270;
#X text 337 196 180;
#X text 339 140 0;
#X text 337 167 90;
#X connect 1 0 4 0;
#X connect 2 0 0 0;
#X connect 4 0 5 0;
#X connect 5 0 11 0;
#X connect 6 0 0 0;
#X connect 7 0 11 1;
#X connect 8 0 11 1;
#X connect 9 0 11 1;
#X connect 10 0 11 1;
#X connect 11 0 3 0;
#X connect 12 0 11 1;
#X connect 13 0 11 1;
#X connect 14 0 11 1;
#X connect 15 0 11 1;
