#N canvas 666 629 859 612 10;
#X obj 515 65 bng 15 250 50 0 empty empty empty 17 7 0 10 -262144 -1
-1;
#X obj 514 198 delay 1000;
#X obj 374 269 s countdown;
#X obj 623 362 s countdown;
#X obj 728 416 s countdown;
#X obj 731 162 r countdown;
#X obj 397 182 s countdown;
#X msg 473 240 2;
#X msg 591 314 1;
#X msg 514 140 3;
#X obj 571 100 t b b b b;
#X obj 578 274 delay 2000;
#X obj 687 272 delay 3000;
#X floatatom 765 225 5 0 0 0 - - -;
#X msg 737 341 0;
#X connect 0 0 10 0;
#X connect 1 0 7 0;
#X connect 5 0 13 0;
#X connect 7 0 2 0;
#X connect 8 0 3 0;
#X connect 9 0 6 0;
#X connect 10 0 9 0;
#X connect 10 1 1 0;
#X connect 10 2 11 0;
#X connect 10 3 12 0;
#X connect 11 0 8 0;
#X connect 12 0 14 0;
#X connect 14 0 4 0;
