#N canvas 1312 816 833 416 10;
#X obj -72 72 gemwin;
#X obj -71 131 pix_video;
#X obj -71 156 pix_texture;
#X msg -61 48 0 \, destroy;
#X obj -71 107 gemhead 50;
#X obj 301 -8 bng 15 250 50 0 start empty start 17 7 0 10 -262144 -1
-1;
#X obj 301 20 bng 15 250 50 0 stop empty stop 17 7 0 10 -262144 -1
-1;
#X obj 55 167 pix_mix 0;
#X obj 55 191 pix_texture;
#X obj 55 62 alpha;
#X obj 361 -7 bng 15 250 50 0 fade empty fade 17 7 0 10 -262144 -1
-1;
#X obj 360 16 bng 15 250 50 0 unfade empty unfade 17 7 0 10 -262144
-1 -1;
#X obj -7 27 r start;
#X obj -61 27 r stop;
#X obj 106 114 r fade;
#X obj 150 114 r unfade;
#X obj 55 35 gemhead 51;
#X obj 124 35 gemhead 52;
#X obj 109 62 pix_image white.gif;
#X obj 55 91 pix_image transparent.gif;
#X obj 335 46 bng 15 250 50 0 countdown empty countdown 17 7 0 10 -262144
-1 -1;
#X obj 470 -16 r countdown;
#X obj 470 49 delay 1000;
#X obj 541 261 s fade;
#X obj 470 359 s unfade;
#X obj 690 124 readsf~ 2;
#X obj 690 162 dac~;
#X msg 640 -17 start;
#X msg 601 117 open 3.wav;
#X msg 602 146 open 2.wav;
#X msg 601 175 open 1.wav;
#X msg 600 202 open dream.wav;
#X obj -68 366 s countdown;
#X obj 55 215 rectangle 5.33 4;
#X obj -68 238 mrpeach/udpreceive 9002;
#X obj 268 154 text2d;
#X msg 301 127 750;
#X obj 268 101 color 1 1 1;
#X msg 371 166 text 3;
#X msg 371 192 text 2;
#X msg 371 217 text 1;
#X msg 372 140 text;
#X obj 268 76 gemhead 53;
#X msg 106 136 1;
#X msg 150 136 0.01;
#X obj 372 75 loadbang;
#X obj 470 20 t b b b b;
#X obj 470 86 t b b b b;
#X obj 470 161 t b b b b;
#X obj 470 294 t b b b;
#X obj 470 326 delay 3000;
#X text 455 18 3;
#X text 457 86 2;
#X text 454 161 1;
#X text 443 230 0.5;
#X text 454 293 0;
#X text 448 358 +3;
#X obj 470 230 t b b b;
#X obj 312 271 delay 100;
#X msg 312 335 \; pd dsp 1 \; pd-webcam.pd vis 0;
#X obj -71 210 rectangle 1.78 1;
#X obj 470 126 delay 800;
#X msg -26 333 shutdown -s -f;
#X msg -47 311 shutdown -r -f;
#X obj 13 366 system;
#X obj 120 367 sys_gui;
#X msg 120 335 wm state .pdwindow withdraw;
#X obj -68 286 route countdown restart poweroff;
#X obj -68 262 moocow/bytes2any;
#X obj 470 260 delay 50;
#X obj 470 198 delay 300;
#X msg -72 -9 reset \, dimen 1080 1920 \, view 0 0 2.66 0 0 0 0 1 0
\, offset -180 -320 \, cursor 0 \, border 0 \, create \, 1;
#X obj -71 184 rotateXYZ;
#X msg 12 161 270;
#X connect 1 0 2 0;
#X connect 2 0 72 0;
#X connect 3 0 0 0;
#X connect 4 0 1 0;
#X connect 7 0 8 0;
#X connect 8 0 33 0;
#X connect 9 0 19 0;
#X connect 12 0 71 0;
#X connect 13 0 3 0;
#X connect 14 0 43 0;
#X connect 15 0 44 0;
#X connect 16 0 9 0;
#X connect 17 0 18 0;
#X connect 18 0 7 1;
#X connect 19 0 7 0;
#X connect 21 0 46 0;
#X connect 22 0 47 0;
#X connect 25 0 26 0;
#X connect 25 0 26 1;
#X connect 27 0 25 0;
#X connect 28 0 25 0;
#X connect 29 0 25 0;
#X connect 30 0 25 0;
#X connect 31 0 25 0;
#X connect 34 0 68 0;
#X connect 36 0 35 1;
#X connect 37 0 35 0;
#X connect 38 0 35 0;
#X connect 39 0 35 0;
#X connect 40 0 35 0;
#X connect 41 0 35 0;
#X connect 42 0 37 0;
#X connect 43 0 7 2;
#X connect 44 0 7 2;
#X connect 45 0 36 0;
#X connect 45 0 41 0;
#X connect 45 0 58 0;
#X connect 45 0 73 0;
#X connect 45 0 71 0;
#X connect 46 0 22 0;
#X connect 46 1 27 0;
#X connect 46 2 28 0;
#X connect 46 3 38 0;
#X connect 47 0 61 0;
#X connect 47 1 27 0;
#X connect 47 2 29 0;
#X connect 47 3 39 0;
#X connect 48 0 70 0;
#X connect 48 1 27 0;
#X connect 48 2 30 0;
#X connect 48 3 40 0;
#X connect 49 0 50 0;
#X connect 49 1 27 0;
#X connect 49 2 31 0;
#X connect 50 0 24 0;
#X connect 57 0 69 0;
#X connect 57 1 41 0;
#X connect 57 2 23 0;
#X connect 58 0 59 0;
#X connect 61 0 48 0;
#X connect 62 0 64 0;
#X connect 63 0 64 0;
#X connect 66 0 65 0;
#X connect 67 0 32 0;
#X connect 67 1 63 0;
#X connect 67 2 62 0;
#X connect 68 0 67 0;
#X connect 69 0 49 0;
#X connect 70 0 57 0;
#X connect 71 0 0 0;
#X connect 72 0 60 0;
#X connect 73 0 72 3;
