#N canvas 124 627 836 498 10;
#X obj -75 108 gemwin;
#X obj -73 166 pix_video;
#X obj -73 191 pix_texture;
#X msg 337 416 offset 2560 0;
#X msg -64 84 0 \, destroy;
#X msg -24 440 reset \, offset 1024 0 \, border 0 \, fullscreen 2 \,
create \, 1;
#X msg -24 416 menubar 0;
#X text 44 416 makes it really hard to get focus back;
#X text 335 441 fullscreen 2 for 2nd screen;
#X obj -73 142 gemhead 50;
#X obj 295 -11 bng 15 250 50 0 start empty start 17 7 0 10 -262144
-1 -1;
#X obj 295 17 bng 15 250 50 0 stop empty stop 17 7 0 10 -262144 -1
-1;
#X obj 33 199 pix_mix 0;
#X obj 34 262 pix_texture;
#X obj 32 133 alpha;
#X obj 166 287 hsl 128 15 0.01 1 1 0 empty empty fade -2 -8 0 10 -262144
-1 -1 0 1;
#X obj -74 -20 loadbang;
#X obj 191 250 line 0 50;
#X msg 204 216 0 500;
#X msg 148 216 1 800;
#X obj 383 -12 bng 15 250 50 0 fade empty fade 17 7 0 10 -262144 -1
-1;
#X obj 382 11 bng 15 250 50 0 unfade empty unfade 17 7 0 10 -262144
-1 -1;
#X obj -64 0 r start;
#X obj -64 63 r stop;
#X obj 148 191 r fade;
#X obj 204 191 r unfade;
#X obj 32 106 gemhead 51;
#X obj 101 106 gemhead 52;
#X obj 86 133 pix_image white.gif;
#X obj 32 162 pix_image transparent.gif;
#X obj 451 -13 bng 15 250 50 0 countdown empty countdown 17 7 0 10
-262144 -1 -1;
#X obj 464 67 r countdown;
#X obj 471 143 delay 1000;
#X obj 471 210 s fade;
#X obj 471 297 delay 5000;
#X obj 471 323 s unfade;
#X obj 472 242 delay 2300;
#X obj 626 189 readsf~ 2;
#X obj 627 227 dac~;
#X msg 574 188 start;
#X msg 605 69 open 3.wav;
#X obj 552 69 t b b;
#X obj 553 98 t b b;
#X obj 552 127 t b b;
#X obj 551 154 t b b;
#X msg 606 98 open 2.wav;
#X msg 605 127 open 1.wav;
#X msg 604 154 open dream.wav;
#X obj 471 102 t b b b b b;
#X obj 566 290 s countdown;
#X obj 34 290 rectangle 5.33 4;
#X obj 471 181 delay 1800;
#X obj 471 271 delay 2800;
#X obj 566 263 mrpeach/udpreceive 9002;
#X obj 266 130 translate 1 0 0 0;
#X msg 365 106 0 1 0;
#X obj 380 155 loadbang;
#X msg 278 181 font OpenSans-Bold.ttf;
#X obj 266 228 text2d;
#X msg 299 204 750;
#X obj 266 155 color 1 1 1;
#X msg 344 249 text 3;
#X msg 344 275 text 2;
#X msg 344 300 text 1;
#X msg 345 223 text;
#X msg -9 -19 \; pd dsp 1;
#X obj 266 106 gemhead 53;
#X msg -74 21 reset \, dimen 1920 1080 \, offset -300 -200 \, border
0 \, fullscreen 1 \, create \, 1;
#X obj -73 216 rectangle 4 3;
#X connect 1 0 2 0;
#X connect 2 0 68 0;
#X connect 4 0 0 0;
#X connect 9 0 1 0;
#X connect 12 0 13 0;
#X connect 13 0 50 0;
#X connect 14 0 29 0;
#X connect 15 0 12 2;
#X connect 16 0 67 0;
#X connect 16 0 65 0;
#X connect 17 0 15 0;
#X connect 18 0 17 0;
#X connect 19 0 17 0;
#X connect 22 0 67 0;
#X connect 23 0 4 0;
#X connect 24 0 19 0;
#X connect 25 0 18 0;
#X connect 26 0 14 0;
#X connect 27 0 28 0;
#X connect 28 0 12 1;
#X connect 29 0 12 0;
#X connect 31 0 41 0;
#X connect 31 0 48 0;
#X connect 31 0 61 0;
#X connect 32 0 42 0;
#X connect 32 0 62 0;
#X connect 34 0 35 0;
#X connect 34 0 64 0;
#X connect 37 0 38 0;
#X connect 37 0 38 1;
#X connect 39 0 37 0;
#X connect 40 0 37 0;
#X connect 41 0 39 0;
#X connect 41 1 40 0;
#X connect 42 0 39 0;
#X connect 42 1 45 0;
#X connect 43 0 39 0;
#X connect 43 1 46 0;
#X connect 44 0 39 0;
#X connect 44 1 47 0;
#X connect 45 0 37 0;
#X connect 46 0 37 0;
#X connect 47 0 37 0;
#X connect 48 0 32 0;
#X connect 48 1 51 0;
#X connect 48 2 36 0;
#X connect 48 3 52 0;
#X connect 48 4 34 0;
#X connect 51 0 33 0;
#X connect 51 0 43 0;
#X connect 51 0 63 0;
#X connect 52 0 44 0;
#X connect 53 0 49 0;
#X connect 54 0 60 0;
#X connect 55 0 54 2;
#X connect 56 0 55 0;
#X connect 56 0 57 0;
#X connect 56 0 59 0;
#X connect 56 0 64 0;
#X connect 57 0 58 0;
#X connect 59 0 58 1;
#X connect 60 0 58 0;
#X connect 61 0 58 0;
#X connect 62 0 58 0;
#X connect 63 0 58 0;
#X connect 64 0 58 0;
#X connect 66 0 54 0;
#X connect 67 0 0 0;
