#N canvas 26 558 725 490 10;
#X obj -75 69 gemwin;
#X obj -73 161 pix_video;
#X obj -72 190 pix_texture;
#X msg 337 416 offset 2560 0;
#X msg -64 45 0 \, destroy;
#X msg -24 440 reset \, offset 1024 0 \, border 0 \, fullscreen 2 \,
create \, 1;
#X msg -24 416 menubar 0;
#X text 44 416 makes it really hard to get focus back;
#X msg -74 13 reset \, dimen 2560 1440 \, border 0 \, fullscreen 1
\, create \, 1;
#X text 335 441 fullscreen 2 for 2nd screen;
#X msg -59 135 dialog;
#X obj -73 107 gemhead 50;
#X obj 295 -11 bng 15 250 50 0 start empty start 17 7 0 10 -262144
-1 -1;
#X obj 295 17 bng 15 250 50 0 stop empty stop 17 7 0 10 -262144 -1
-1;
#X obj 20 199 pix_mix 0;
#X obj 21 262 pix_texture;
#X obj 19 133 alpha;
#X obj 91 200 hsl 128 15 0.01 1 1 0 empty empty fade -2 -8 0 10 -262144
-1 -1 0 1;
#X obj -75 -17 loadbang;
#X obj 113 225 line 0 50;
#X obj -72 261 pix_coordinate;
#X msg -58 237 1 1 0 1 0 0 1 0;
#X obj -72 289 rectangle 4 3;
#X obj 21 290 rectangle 4 3;
#X msg 113 251 0 500;
#X msg 173 251 1 800;
#X obj 383 -12 bng 15 250 50 0 fade empty fade 17 7 0 10 -262144 -1
-1;
#X obj 382 11 bng 15 250 50 0 unfade empty unfade 17 7 0 10 -262144
-1 -1;
#X obj -16 -17 r start;
#X obj 24 45 r stop;
#X obj 173 275 r fade;
#X obj 114 275 r unfade;
#X obj 19 106 gemhead 51;
#X obj 88 106 gemhead 52;
#X obj -58 214 loadbang;
#X obj 239 104 gemhead 53;
#X obj 314 197 loadbang;
#X obj 73 133 pix_image white.gif;
#X obj 19 162 pix_image transparent.gif;
#X msg 247 220 font OpenSans-Bold.ttf;
#X obj 238 197 color 1 1 1;
#X msg 316 246 750;
#X msg 352 168 0 1 0;
#X msg 378 291 text;
#X msg 378 317 text 3;
#X msg 378 342 text 2;
#X msg 377 365 text 1;
#X obj 451 -13 bng 15 250 50 0 countdown empty countdown 17 7 0 10
-262144 -1 -1;
#X obj 457 97 r countdown;
#X obj 464 173 delay 1000;
#X obj 464 132 t b b b;
#X obj 464 211 delay 2000;
#X obj 486 239 s fade;
#X obj 461 271 delay 5000;
#X obj 487 296 s unfade;
#X obj 238 168 translate 1 0 0 0;
#X obj 238 243 text2d;
#X connect 1 0 2 0;
#X connect 2 0 20 0;
#X connect 4 0 0 0;
#X connect 8 0 0 0;
#X connect 10 0 1 0;
#X connect 11 0 1 0;
#X connect 14 0 15 0;
#X connect 15 0 23 0;
#X connect 16 0 38 0;
#X connect 17 0 14 2;
#X connect 18 0 8 0;
#X connect 19 0 17 0;
#X connect 20 0 22 0;
#X connect 21 0 20 1;
#X connect 24 0 19 0;
#X connect 25 0 19 0;
#X connect 28 0 8 0;
#X connect 29 0 4 0;
#X connect 30 0 25 0;
#X connect 31 0 24 0;
#X connect 32 0 16 0;
#X connect 33 0 37 0;
#X connect 34 0 21 0;
#X connect 35 0 55 0;
#X connect 36 0 43 0;
#X connect 36 0 39 0;
#X connect 36 0 41 0;
#X connect 36 0 42 0;
#X connect 37 0 14 1;
#X connect 38 0 14 0;
#X connect 39 0 56 0;
#X connect 40 0 56 0;
#X connect 41 0 56 1;
#X connect 42 0 55 2;
#X connect 43 0 56 0;
#X connect 44 0 56 0;
#X connect 45 0 56 0;
#X connect 46 0 56 0;
#X connect 48 0 44 0;
#X connect 48 0 50 0;
#X connect 49 0 45 0;
#X connect 50 0 49 0;
#X connect 50 1 51 0;
#X connect 50 2 53 0;
#X connect 51 0 46 0;
#X connect 51 0 52 0;
#X connect 53 0 43 0;
#X connect 53 0 54 0;
#X connect 55 0 40 0;
