#N canvas 26 558 836 498 10;
#X declare -lib mrpeach;
#X obj -75 69 gemwin;
#X obj -73 161 pix_video;
#X obj -72 190 pix_texture;
#X msg 337 416 offset 2560 0;
#X msg -64 45 0 \, destroy;
#X msg -24 440 reset \, offset 1024 0 \, border 0 \, fullscreen 2 \,
create \, 1;
#X msg -24 416 menubar 0;
#X text 44 416 makes it really hard to get focus back;
#X msg -74 13 reset \, dimen 2560 1440 \, border 0 \, fullscreen 1
\, create \, 1;
#X text 335 441 fullscreen 2 for 2nd screen;
#X msg -59 135 dialog;
#X obj -73 107 gemhead 50;
#X obj 295 -11 bng 15 250 50 0 start empty start 17 7 0 10 -262144
-1 -1;
#X obj 295 17 bng 15 250 50 0 stop empty stop 17 7 0 10 -262144 -1
-1;
#X obj 33 199 pix_mix 0;
#X obj 34 262 pix_texture;
#X obj 32 133 alpha;
#X obj 104 200 hsl 128 15 0.01 1 1 0 empty empty fade -2 -8 0 10 -262144
-1 -1 0 1;
#X obj -75 -17 loadbang;
#X obj 156 229 line 0 50;
#X obj -72 261 pix_coordinate;
#X msg -58 237 1 1 0 1 0 0 1 0;
#X msg 126 251 0 500;
#X msg 216 255 1 800;
#X obj 383 -12 bng 15 250 50 0 fade empty fade 17 7 0 10 -262144 -1
-1;
#X obj 382 11 bng 15 250 50 0 unfade empty unfade 17 7 0 10 -262144
-1 -1;
#X obj -16 -17 r start;
#X obj 24 45 r stop;
#X obj 216 279 r fade;
#X obj 157 279 r unfade;
#X obj 32 106 gemhead 51;
#X obj 101 106 gemhead 52;
#X obj -58 214 loadbang;
#X obj 239 104 gemhead 53;
#X obj 86 133 pix_image white.gif;
#X obj 32 162 pix_image transparent.gif;
#X obj 451 -13 bng 15 250 50 0 countdown empty countdown 17 7 0 10
-262144 -1 -1;
#X obj 464 67 r countdown;
#X obj 471 143 delay 1000;
#X obj 471 181 delay 2000;
#X obj 493 209 s fade;
#X obj 471 297 delay 5000;
#X obj 494 323 s unfade;
#X obj 238 132 alpha;
#X obj 239 193 pix_texture;
#X obj 240 222 rectangle 4 3;
#X obj 238 161 pix_image transparent.gif;
#X msg 340 193 open 3.gif;
#X msg 339 222 open 2.gif;
#X msg 339 251 open 1.gif;
#X msg 339 277 open transparent.gif;
#X obj 470 242 delay 2300;
#X obj 626 189 readsf~ 2;
#X obj 627 227 dac~;
#X msg 574 188 start;
#X msg 605 69 open 3.wav;
#X obj 552 69 t b b;
#X obj 553 98 t b b;
#X obj 552 127 t b b;
#X obj 551 154 t b b;
#X msg 606 98 open 2.wav;
#X msg 605 127 open 1.wav;
#X msg 604 154 open dream.wav;
#X obj 471 102 t b b b b b;
#X obj 471 271 delay 3000;
#X obj 50 -15 import mrpeach;
#X obj 566 263 udpreceive 9002;
#X obj 564 298 s countdown;
#X obj -72 289 rectangle 5.33 4;
#X obj 34 290 rectangle 5.33 4;
#X connect 1 0 2 0;
#X connect 2 0 20 0;
#X connect 4 0 0 0;
#X connect 8 0 0 0;
#X connect 10 0 1 0;
#X connect 11 0 1 0;
#X connect 14 0 15 0;
#X connect 15 0 69 0;
#X connect 16 0 35 0;
#X connect 17 0 14 2;
#X connect 18 0 8 0;
#X connect 19 0 17 0;
#X connect 20 0 68 0;
#X connect 21 0 20 1;
#X connect 22 0 19 0;
#X connect 23 0 19 0;
#X connect 26 0 8 0;
#X connect 27 0 4 0;
#X connect 28 0 23 0;
#X connect 29 0 22 0;
#X connect 30 0 16 0;
#X connect 31 0 34 0;
#X connect 32 0 21 0;
#X connect 33 0 43 0;
#X connect 34 0 14 1;
#X connect 35 0 14 0;
#X connect 37 0 47 0;
#X connect 37 0 56 0;
#X connect 37 0 63 0;
#X connect 38 0 48 0;
#X connect 38 0 57 0;
#X connect 39 0 40 0;
#X connect 39 0 49 0;
#X connect 39 0 58 0;
#X connect 41 0 42 0;
#X connect 43 0 46 0;
#X connect 44 0 45 0;
#X connect 46 0 44 0;
#X connect 47 0 46 0;
#X connect 48 0 46 0;
#X connect 49 0 46 0;
#X connect 50 0 46 0;
#X connect 51 0 50 0;
#X connect 52 0 53 0;
#X connect 52 0 53 1;
#X connect 54 0 52 0;
#X connect 55 0 52 0;
#X connect 56 0 54 0;
#X connect 56 1 55 0;
#X connect 57 0 54 0;
#X connect 57 1 60 0;
#X connect 58 0 54 0;
#X connect 58 1 61 0;
#X connect 59 0 54 0;
#X connect 59 1 62 0;
#X connect 60 0 52 0;
#X connect 61 0 52 0;
#X connect 62 0 52 0;
#X connect 63 0 38 0;
#X connect 63 1 39 0;
#X connect 63 2 51 0;
#X connect 63 3 64 0;
#X connect 63 4 41 0;
#X connect 64 0 59 0;
#X connect 66 0 67 0;
