#N canvas 124 627 913 503 10;
#X obj -75 108 gemwin;
#X obj -73 166 pix_video;
#X obj -73 191 pix_texture;
#X msg 337 416 offset 2560 0;
#X msg -64 84 0 \, destroy;
#X msg -24 440 reset \, offset 1024 0 \, border 0 \, fullscreen 2 \,
create \, 1;
#X msg -24 416 menubar 0;
#X text 44 416 makes it really hard to get focus back;
#X text 335 441 fullscreen 2 for 2nd screen;
#X obj -73 142 gemhead 50;
#X obj 295 -11 bng 15 250 50 0 start empty start 17 7 0 10 -262144
-1 -1;
#X obj 295 17 bng 15 250 50 0 stop empty stop 17 7 0 10 -262144 -1
-1;
#X obj 32 238 pix_mix 0;
#X obj 32 262 pix_texture;
#X obj 32 133 alpha;
#X obj -74 -20 loadbang;
#X obj 383 -12 bng 15 250 50 0 fade empty fade 17 7 0 10 -262144 -1
-1;
#X obj 382 11 bng 15 250 50 0 unfade empty unfade 17 7 0 10 -262144
-1 -1;
#X obj -64 0 r start;
#X obj -64 63 r stop;
#X obj 83 185 r fade;
#X obj 127 185 r unfade;
#X obj 32 106 gemhead 51;
#X obj 101 106 gemhead 52;
#X obj 86 133 pix_image white.gif;
#X obj 32 162 pix_image transparent.gif;
#X obj 451 -13 bng 15 250 50 0 countdown empty countdown 17 7 0 10
-262144 -1 -1;
#X obj 525 28 r countdown;
#X obj 525 93 delay 1000;
#X obj 596 305 s fade;
#X obj 525 403 s unfade;
#X obj 745 168 readsf~ 2;
#X obj 746 206 dac~;
#X msg 695 27 start;
#X msg 656 161 open 3.wav;
#X msg 657 190 open 2.wav;
#X msg 656 219 open 1.wav;
#X msg 655 246 open dream.wav;
#X obj -56 363 s countdown;
#X obj 32 286 rectangle 5.33 4;
#X obj -56 336 mrpeach/udpreceive 9002;
#X obj 266 130 translate 1 0 0 0;
#X msg 365 106 0 1 0;
#X obj 266 208 text2d;
#X msg 299 181 750;
#X obj 266 155 color 1 1 1;
#X msg 344 249 text 3;
#X msg 344 275 text 2;
#X msg 344 300 text 1;
#X msg 345 223 text;
#X obj 266 106 gemhead 53;
#X obj -73 216 rectangle 4 3;
#X msg -74 21 reset \, dimen 1920 1080 \, offset -300 -200 \, border
0 \, create \, 1;
#X msg 83 207 1;
#X msg 127 207 0.01;
#X obj 381 154 loadbang;
#X obj 525 64 t b b b b;
#X obj 525 130 t b b b b;
#X obj 525 170 delay 1000;
#X obj 525 205 t b b b b;
#X obj 525 242 delay 500;
#X obj 525 304 delay 500;
#X obj 525 338 t b b b;
#X obj 525 370 delay 3000;
#X text 510 62 3;
#X text 512 130 2;
#X text 509 205 1;
#X text 498 274 0.5;
#X text 509 337 0;
#X text 503 402 +3;
#X obj 525 274 t b b b;
#X obj 224 293 delay 100;
#X msg 224 331 \; pd dsp 1 \; pd-webcam.pd vis 0;
#X connect 1 0 2 0;
#X connect 2 0 51 0;
#X connect 4 0 0 0;
#X connect 9 0 1 0;
#X connect 12 0 13 0;
#X connect 13 0 39 0;
#X connect 14 0 25 0;
#X connect 15 0 52 0;
#X connect 18 0 52 0;
#X connect 19 0 4 0;
#X connect 20 0 53 0;
#X connect 21 0 54 0;
#X connect 22 0 14 0;
#X connect 23 0 24 0;
#X connect 24 0 12 1;
#X connect 25 0 12 0;
#X connect 27 0 56 0;
#X connect 28 0 57 0;
#X connect 31 0 32 0;
#X connect 31 0 32 1;
#X connect 33 0 31 0;
#X connect 34 0 31 0;
#X connect 35 0 31 0;
#X connect 36 0 31 0;
#X connect 37 0 31 0;
#X connect 40 0 38 0;
#X connect 41 0 45 0;
#X connect 42 0 41 2;
#X connect 44 0 43 1;
#X connect 45 0 43 0;
#X connect 46 0 43 0;
#X connect 47 0 43 0;
#X connect 48 0 43 0;
#X connect 49 0 43 0;
#X connect 50 0 41 0;
#X connect 52 0 0 0;
#X connect 53 0 12 2;
#X connect 54 0 12 2;
#X connect 55 0 42 0;
#X connect 55 0 44 0;
#X connect 55 0 49 0;
#X connect 55 0 71 0;
#X connect 56 0 28 0;
#X connect 56 1 33 0;
#X connect 56 2 34 0;
#X connect 56 3 46 0;
#X connect 57 0 58 0;
#X connect 57 1 33 0;
#X connect 57 2 35 0;
#X connect 57 3 47 0;
#X connect 58 0 59 0;
#X connect 59 0 60 0;
#X connect 59 1 33 0;
#X connect 59 2 36 0;
#X connect 59 3 48 0;
#X connect 60 0 70 0;
#X connect 61 0 62 0;
#X connect 62 0 63 0;
#X connect 62 1 33 0;
#X connect 62 2 37 0;
#X connect 63 0 30 0;
#X connect 70 0 61 0;
#X connect 70 1 49 0;
#X connect 70 2 29 0;
#X connect 71 0 72 0;
